<svg width="116" height="44" viewBox="0 0 116 44" fill="none" xmlns="http://www.w3.org/2000/svg">
<path d="M93.4082 16.9394C92.9117 16.9394 92.5079 16.8202 92.1968 16.5819C91.8857 16.3436 91.6871 16.0193 91.6076 15.6155C91.5282 15.2051 91.5812 14.7549 91.7731 14.2585L94.0436 8.34061C94.1826 7.96991 94.3945 7.63232 94.6659 7.32782C94.9439 7.02332 95.255 6.76516 95.5992 6.55995L97.5586 5.43463C97.8432 5.26914 98.1345 5.14337 98.4324 5.0507C98.7369 4.95803 99.0348 4.91169 99.3393 4.91169H102.391C102.887 4.91169 103.291 5.03084 103.602 5.26914C103.913 5.50745 104.112 5.8318 104.198 6.2356C104.284 6.64601 104.231 7.09613 104.039 7.5926L101.769 13.5105C101.63 13.8745 101.418 14.2121 101.146 14.51C100.875 14.8145 100.557 15.0727 100.213 15.2779L98.2536 16.4032C97.9889 16.5621 97.6976 16.6878 97.3865 16.7871C97.0754 16.8864 96.7643 16.9394 96.4598 16.9394H93.4082ZM94.0304 15.4036H98.3198C98.4655 15.4036 98.6177 15.3705 98.77 15.2977C98.9222 15.2249 99.0546 15.1322 99.1738 14.9999C99.2863 14.8741 99.379 14.7417 99.4386 14.5961L102.265 7.24176C102.331 7.08289 102.351 6.94389 102.325 6.82473C102.298 6.70558 102.239 6.60629 102.146 6.54009C102.053 6.4739 101.927 6.4408 101.775 6.4408H97.4858C97.3468 6.4408 97.2011 6.4739 97.0489 6.54671C96.9033 6.61953 96.7643 6.7122 96.6451 6.83797C96.526 6.96374 96.4333 7.09613 96.3803 7.24176L93.5472 14.5961C93.4876 14.7549 93.4677 14.8939 93.4876 15.0131C93.5074 15.1322 93.5604 15.2315 93.6531 15.2977C93.7458 15.3639 93.8715 15.397 94.0238 15.397" fill="black"/>
<path d="M103.516 16.9394C103.41 16.9394 103.337 16.8997 103.291 16.8268C103.245 16.754 103.245 16.6614 103.278 16.5488L108.322 3.43553C108.468 3.06484 108.679 2.72725 108.951 2.42937C109.222 2.13149 109.533 1.87333 109.878 1.66812L111.837 0.529562C112.115 0.364074 112.4 0.238303 112.704 0.14563C113.009 0.0529562 113.313 0.00661953 113.618 0.00661953H115.67C115.782 0.00661953 115.862 0.0463367 115.901 0.119152C115.948 0.191966 115.948 0.28464 115.915 0.397172L115.623 1.16504C115.577 1.27095 115.504 1.357 115.398 1.42982C115.292 1.50263 115.186 1.54235 115.074 1.54235H111.751C111.612 1.54235 111.466 1.57545 111.314 1.64826C111.168 1.72108 111.036 1.81375 110.917 1.93952C110.804 2.05867 110.712 2.19768 110.659 2.34331L109.666 4.90507H113.386C113.492 4.90507 113.565 4.94479 113.611 5.0176C113.657 5.09042 113.657 5.18309 113.624 5.29562L113.326 6.06349C113.287 6.1694 113.22 6.25545 113.114 6.32827C113.009 6.40108 112.903 6.4408 112.803 6.4408H109.083L105.184 16.5488C105.145 16.6614 105.072 16.754 104.966 16.8268C104.86 16.8997 104.754 16.9394 104.648 16.9394H103.503H103.516Z" fill="black"/>
<path d="M0.324357 16.9394C0.205205 16.9394 0.119152 16.893 0.0595758 16.807C0 16.7209 -0.0132391 16.615 0.0132391 16.5091L4.73958 1.50263C4.7793 1.37024 4.83887 1.27095 4.93155 1.20475C5.02422 1.13856 5.13675 1.11208 5.26252 1.11208H7.65879C7.77795 1.11208 7.88386 1.14518 7.98315 1.20475C8.08244 1.27095 8.14864 1.36362 8.18174 1.50263L12.875 16.5025C12.9147 16.615 12.9015 16.7143 12.8419 16.8004C12.7823 16.8864 12.6896 16.9328 12.5639 16.9328H11.3393C11.2201 16.9328 11.1142 16.8997 11.0215 16.8335C10.9288 16.7673 10.8626 16.668 10.8229 16.529L9.53212 12.3851H3.25681L1.966 16.529C1.92628 16.6614 1.86671 16.7606 1.77403 16.8335C1.68136 16.8997 1.58207 16.9328 1.46292 16.9328H0.324357V16.9394ZM3.74665 10.7435H9.04228L6.40108 2.15135L3.74665 10.7435Z" fill="black"/>
<path d="M14.6093 16.9394C14.5034 16.9394 14.4173 16.8997 14.3445 16.8268C14.2717 16.754 14.232 16.6614 14.232 16.5488V5.29562C14.232 5.18309 14.2717 5.09042 14.3445 5.0176C14.4173 4.94479 14.51 4.90507 14.6093 4.90507H15.7545C15.8604 4.90507 15.9464 4.94479 16.0193 5.0176C16.0921 5.09042 16.1318 5.18309 16.1318 5.29562V5.97743C16.5025 5.80533 16.8202 5.6597 17.085 5.54054C17.3498 5.42139 17.5815 5.3221 17.7734 5.23605C17.9654 5.14999 18.1375 5.0838 18.2831 5.03746C18.4288 4.99112 18.5612 4.95803 18.6803 4.93817C18.7995 4.91831 18.912 4.91169 19.0245 4.91169H20.8184C20.9309 4.91169 21.0236 4.95141 21.0964 5.02422C21.1693 5.09704 21.209 5.18971 21.209 5.30224V6.21574C21.209 6.32165 21.1693 6.4077 21.0964 6.48714C21.0236 6.56657 20.9309 6.60629 20.8184 6.60629H16.5819C16.4628 6.60629 16.3569 6.65263 16.2708 6.73206C16.1847 6.81811 16.1384 6.92403 16.1384 7.0498V16.5554C16.1384 16.668 16.0987 16.7606 16.0193 16.8335C15.9398 16.9063 15.8471 16.946 15.7479 16.946H14.6027L14.6093 16.9394Z" fill="black"/>
<path d="M24.4923 16.9394C23.9958 16.9394 23.5457 16.8202 23.1353 16.5819C22.7315 16.3436 22.4071 16.0193 22.1688 15.6155C21.9305 15.2117 21.8113 14.7549 21.8113 14.2585V8.34061C21.8113 7.96991 21.8908 7.63232 22.043 7.33444C22.2019 7.02994 22.4137 6.7784 22.6917 6.57319L24.2076 5.43463C24.4261 5.26914 24.6644 5.14337 24.9291 5.0507C25.1939 4.95803 25.4852 4.91169 25.7897 4.91169H30.3373C30.4432 4.91169 30.5293 4.95141 30.6087 5.02422C30.6881 5.09704 30.7278 5.18971 30.7278 5.30224V6.07011C30.7278 6.1694 30.6881 6.25545 30.6087 6.33489C30.5293 6.41432 30.4366 6.45404 30.3373 6.45404H24.5187C24.3797 6.45404 24.2473 6.48714 24.1216 6.55995C24.0024 6.63277 23.9031 6.72544 23.8303 6.85121C23.7575 6.97036 23.7244 7.10937 23.7244 7.255V14.6093C23.7244 14.7682 23.7575 14.9072 23.8237 15.0263C23.8899 15.1521 23.9825 15.2448 24.1017 15.311C24.2209 15.3772 24.3599 15.4103 24.5121 15.4103H30.6947C30.794 15.4103 30.8536 15.4566 30.8867 15.5427C30.9198 15.6287 30.8933 15.7081 30.8139 15.7677L29.8872 16.4694C29.6952 16.6084 29.4834 16.7275 29.2517 16.8136C29.02 16.9063 28.7685 16.946 28.4838 16.946H24.4724L24.4923 16.9394Z" fill="black"/>
<path d="M33.0182 16.9394C32.9123 16.9394 32.8262 16.8997 32.7534 16.8268C32.6806 16.754 32.6409 16.6614 32.6409 16.5488V0.390552C32.6409 0.27802 32.6806 0.185347 32.7534 0.112532C32.8262 0.0397172 32.9189 0 33.0182 0H34.1634C34.2693 0 34.3554 0.0397172 34.4348 0.112532C34.5142 0.185347 34.5539 0.27802 34.5539 0.390552V5.57364C35.0372 5.47435 35.474 5.39492 35.858 5.31548C36.2419 5.24267 36.5928 5.17647 36.9039 5.12351C37.215 5.07056 37.4996 5.0176 37.7578 4.97788C38.016 4.93817 38.2476 4.90507 38.4595 4.88521C38.6713 4.86535 38.8699 4.84549 39.0685 4.83226C39.267 4.81902 39.4524 4.81902 39.6377 4.81902C40.1607 4.81902 40.6174 4.93155 41.0212 5.15661C41.425 5.38168 41.7361 5.69941 41.9678 6.09659C42.1995 6.50038 42.312 6.95712 42.312 7.48007V16.5488C42.312 16.6614 42.2723 16.754 42.1995 16.8268C42.1267 16.8997 42.034 16.9394 41.9347 16.9394H40.7895C40.677 16.9394 40.5843 16.8997 40.5115 16.8268C40.4387 16.754 40.399 16.6614 40.399 16.5488V7.24176C40.399 7.08289 40.3659 6.94389 40.2997 6.82473C40.2335 6.70558 40.1408 6.60629 40.015 6.54009C39.8893 6.4739 39.7569 6.4408 39.6113 6.4408H35.0107C34.8849 6.4408 34.779 6.48052 34.6929 6.56657C34.6069 6.65263 34.5672 6.75854 34.5672 6.88431V16.5422C34.5672 16.6547 34.5275 16.7474 34.448 16.8202C34.3686 16.893 34.2759 16.9328 34.1766 16.9328H33.0314L33.0182 16.9394Z" fill="black"/>
<path d="M45.2776 2.2374C45.1717 2.2374 45.0856 2.19768 45.0128 2.11825C44.94 2.03881 44.9003 1.95276 44.9003 1.85347V0.390552C44.9003 0.27802 44.94 0.185347 45.0128 0.112532C45.0856 0.0397172 45.1783 0 45.2776 0H46.4227C46.5287 0 46.6147 0.0397172 46.6941 0.112532C46.7736 0.185347 46.8133 0.27802 46.8133 0.390552V1.86009C46.8133 1.95938 46.7736 2.04543 46.6941 2.12487C46.6147 2.2043 46.522 2.24402 46.4227 2.24402H45.2776V2.2374ZM45.2776 16.9328C45.1717 16.9328 45.0856 16.893 45.0128 16.8202C44.94 16.7474 44.9003 16.6547 44.9003 16.5422V5.29562C44.9003 5.18309 44.94 5.09042 45.0128 5.0176C45.0856 4.94479 45.1783 4.90507 45.2776 4.90507H46.4227C46.5287 4.90507 46.6147 4.94479 46.6941 5.0176C46.7736 5.09042 46.8133 5.18309 46.8133 5.29562V16.5488C46.8133 16.6614 46.7736 16.754 46.6941 16.8268C46.6147 16.8997 46.522 16.9394 46.4227 16.9394H45.2776V16.9328Z" fill="black"/>
<path d="M52.1155 16.9394C51.6191 16.9394 51.169 16.8202 50.7585 16.5819C50.3548 16.3436 50.0304 16.0193 49.7921 15.6155C49.5538 15.2051 49.4346 14.7549 49.4346 14.2585V3.85257C49.4346 3.58778 49.5472 3.38258 49.7722 3.25019L50.8843 2.58162C50.9902 2.52204 51.0895 2.51542 51.1954 2.56838C51.3013 2.62133 51.3477 2.70077 51.3477 2.8133V4.89845H55.3393C55.4452 4.89845 55.5312 4.93817 55.604 5.01098C55.6768 5.0838 55.7166 5.17647 55.7166 5.289V6.05687C55.7166 6.16278 55.6768 6.24883 55.604 6.32165C55.5312 6.39446 55.4385 6.43418 55.3393 6.43418H51.3477V14.5894C51.3477 14.7483 51.3808 14.8873 51.447 15.0065C51.5132 15.1322 51.6058 15.2249 51.725 15.2911C51.8441 15.3573 51.9832 15.3904 52.1354 15.3904H55.7099C55.8159 15.3904 55.8821 15.4367 55.9152 15.5228C55.9482 15.6088 55.9152 15.6883 55.8291 15.7479L54.9024 16.4495C54.717 16.5885 54.5052 16.7077 54.2735 16.7937C54.0418 16.8864 53.7837 16.9261 53.499 16.9261H52.0957L52.1155 16.9394Z" fill="black"/>
<path d="M59.6618 16.9394C59.1653 16.9394 58.7152 16.8202 58.3048 16.5819C57.901 16.3436 57.5767 16.0193 57.3384 15.6155C57.1 15.2051 56.9809 14.7549 56.9809 14.2585V8.34061C56.9809 7.96991 57.0603 7.63232 57.2126 7.32782C57.3714 7.02332 57.5833 6.76516 57.8613 6.55995L59.3772 5.43463C59.5956 5.26914 59.8339 5.14337 60.0987 5.0507C60.3635 4.95803 60.6547 4.91169 60.9592 4.91169H64.0572C64.5536 4.91169 65.0104 5.03084 65.4142 5.26914C65.8246 5.50745 66.1489 5.8318 66.3872 6.2356C66.6255 6.64601 66.7447 7.09613 66.7447 7.5926V8.76425C66.7447 9.26072 66.6255 9.71085 66.3872 10.1146C66.1489 10.5184 65.8246 10.8428 65.4208 11.0811C65.017 11.3194 64.5669 11.4385 64.0704 11.4385H58.9006V14.6027C58.9006 14.7615 58.9337 14.9006 58.9999 15.0197C59.066 15.1455 59.1587 15.2382 59.2779 15.3043C59.397 15.3705 59.536 15.4036 59.6883 15.4036H66.4932C66.5991 15.4036 66.6653 15.45 66.6984 15.536C66.7315 15.6221 66.705 15.7015 66.6255 15.7611L65.6922 16.4628C65.5068 16.6018 65.295 16.7209 65.0633 16.807C64.8317 16.8997 64.5735 16.9394 64.2889 16.9394H59.6552H59.6618ZM58.9006 9.89619H64.0373C64.2756 9.89619 64.4676 9.82338 64.6132 9.67775C64.7588 9.53212 64.8317 9.34015 64.8317 9.10185V7.22852C64.8317 6.99684 64.7588 6.81149 64.6066 6.65925C64.461 6.51362 64.269 6.43418 64.0373 6.43418H59.6883C59.5493 6.43418 59.4169 6.46728 59.2911 6.54009C59.1653 6.61291 59.0727 6.70558 58.9999 6.83135C58.927 6.9505 58.8939 7.0829 58.8939 7.22852V9.88957L58.9006 9.89619Z" fill="black"/>
<path d="M71.5902 16.9394C71.0937 16.9394 70.6436 16.8202 70.2332 16.5819C69.8294 16.3436 69.505 16.0193 69.2667 15.6155C69.0284 15.2117 68.9093 14.7549 68.9093 14.2585V8.34061C68.9093 7.96991 68.9887 7.63232 69.141 7.33444C69.2998 7.02994 69.5117 6.7784 69.7897 6.57319L71.3056 5.43463C71.524 5.26914 71.7623 5.14337 72.0271 5.0507C72.2919 4.95803 72.5831 4.91169 72.8876 4.91169H77.4352C77.5412 4.91169 77.6272 4.95141 77.7066 5.02422C77.7861 5.09704 77.8258 5.18971 77.8258 5.30224V6.07011C77.8258 6.1694 77.7861 6.25545 77.7066 6.33489C77.6272 6.41432 77.5345 6.45404 77.4352 6.45404H71.6167C71.4777 6.45404 71.3453 6.48714 71.2195 6.55995C71.0937 6.63277 71.0011 6.72544 70.9282 6.85121C70.8554 6.97036 70.8223 7.10937 70.8223 7.255V14.6093C70.8223 14.7682 70.8554 14.9072 70.9216 15.0263C70.9878 15.1521 71.0805 15.2448 71.1996 15.311C71.3188 15.3772 71.4578 15.4103 71.6101 15.4103H77.7927C77.892 15.4103 77.9516 15.4566 77.9847 15.5427C78.0178 15.6287 77.9913 15.7081 77.9118 15.7677L76.9851 16.4694C76.7932 16.6084 76.5813 16.7275 76.3496 16.8136C76.118 16.9063 75.8664 16.946 75.5818 16.946H71.5703L71.5902 16.9394Z" fill="black"/>
<path d="M82.3469 16.9394C81.8505 16.9394 81.4003 16.8202 80.9899 16.5819C80.5861 16.3436 80.2618 16.0193 80.0235 15.6155C79.7852 15.2117 79.666 14.7549 79.666 14.2585V3.85257C79.666 3.58778 79.7785 3.38258 80.0036 3.25019L81.1157 2.58162C81.2216 2.52204 81.3209 2.51542 81.4268 2.56838C81.5327 2.62133 81.5791 2.70077 81.5791 2.8133V4.89845H85.5706C85.6766 4.89845 85.7626 4.93817 85.8354 5.01098C85.9082 5.0838 85.9479 5.17647 85.9479 5.289V6.05687C85.9479 6.16278 85.9082 6.24883 85.8354 6.32165C85.7626 6.39446 85.6699 6.43418 85.5706 6.43418H81.5791V14.5894C81.5791 14.7483 81.6122 14.8873 81.6784 15.0065C81.7445 15.1322 81.8372 15.2249 81.9564 15.2911C82.0755 15.3573 82.2145 15.3904 82.3668 15.3904H85.9413C86.0472 15.3904 86.1134 15.4367 86.1465 15.5228C86.1796 15.6088 86.1465 15.6883 86.0605 15.7479L85.1338 16.4495C84.9484 16.5885 84.7366 16.7077 84.5049 16.7937C84.2732 16.8864 84.015 16.9261 83.7304 16.9261H82.3271L82.3469 16.9394Z" fill="black"/>
<path d="M3.27667 39.0883C2.82654 39.0883 2.39627 39.0023 2.00572 38.8302C1.60855 38.658 1.26433 38.4264 0.966451 38.1219C0.668572 37.8174 0.430269 37.4731 0.258162 37.076C0.0860538 36.6788 0 36.2618 0 35.8116V27.3519C0 26.9018 0.105912 26.4847 0.311118 26.114C0.516323 25.7433 0.794343 25.4322 1.14518 25.1807L2.98541 23.7972C3.22371 23.6251 3.48187 23.4927 3.75989 23.4C4.03791 23.3074 4.32917 23.261 4.62043 23.261H10.7369C10.8428 23.261 10.9288 23.3007 11.0083 23.3736C11.0877 23.4464 11.1274 23.539 11.1274 23.6516V24.5121C11.1274 24.618 11.0877 24.7041 11.0083 24.7835C10.9288 24.8629 10.8362 24.9027 10.7369 24.9027H3.66722C3.37596 24.9027 3.11118 24.9689 2.87288 25.1012C2.63457 25.2336 2.44923 25.419 2.31022 25.6507C2.17121 25.8824 2.10501 26.1538 2.10501 26.4583V35.8845C2.10501 36.189 2.17121 36.4537 2.31022 36.6854C2.44923 36.9171 2.63457 37.1025 2.87288 37.2348C3.11118 37.3739 3.37596 37.4401 3.66722 37.4401H11.2995C11.4054 37.4401 11.4716 37.4798 11.4981 37.5658C11.5246 37.6519 11.4981 37.7247 11.4187 37.7843L10.3596 38.5985C10.1676 38.7375 9.96239 38.8566 9.74395 38.9427C9.5255 39.0287 9.2872 39.0751 9.03566 39.0751H3.27667V39.0883Z" fill="black"/>
<path d="M13.6627 39.0883C13.5568 39.0883 13.4707 39.0486 13.3979 38.9758C13.3251 38.903 13.2854 38.8103 13.2854 38.6978V22.5395C13.2854 22.427 13.3251 22.3343 13.3979 22.2615C13.4707 22.1887 13.5634 22.1489 13.6627 22.1489H14.8079C14.9138 22.1489 14.9999 22.1887 15.0793 22.2615C15.1587 22.3343 15.1984 22.427 15.1984 22.5395V27.7226C15.6817 27.6233 16.1186 27.5372 16.5025 27.4644C16.8864 27.3916 17.2373 27.3254 17.5484 27.2725C17.8595 27.2195 18.1441 27.1665 18.4023 27.1268C18.6604 27.0871 18.8921 27.054 19.104 27.0342C19.3158 27.0143 19.5144 26.9944 19.713 26.9812C19.9049 26.968 20.0969 26.968 20.2822 26.968C20.8052 26.968 21.2619 27.0805 21.6657 27.3056C22.0695 27.5306 22.3806 27.8484 22.6123 28.2455C22.844 28.6493 22.9565 29.1061 22.9565 29.629V38.6978C22.9565 38.8103 22.9168 38.903 22.844 38.9758C22.7712 39.0486 22.6785 39.0883 22.5792 39.0883H21.434C21.3215 39.0883 21.2288 39.0486 21.156 38.9758C21.0832 38.903 21.0435 38.8103 21.0435 38.6978V29.3907C21.0435 29.2385 21.0104 29.0994 20.9442 28.9737C20.878 28.8545 20.7853 28.7552 20.6595 28.689C20.5338 28.6228 20.4014 28.5897 20.2558 28.5897H15.6552C15.5294 28.5897 15.4235 28.6295 15.3374 28.7155C15.2514 28.8016 15.2117 28.9075 15.2117 29.0333V38.6911C15.2117 38.8037 15.172 38.8963 15.0925 38.9692C15.0131 39.042 14.9204 39.0817 14.8211 39.0817H13.6759L13.6627 39.0883Z" fill="black"/>
<path d="M28.08 39.181C27.5836 39.181 27.1334 39.0618 26.723 38.8235C26.3192 38.5852 25.9949 38.2609 25.7632 37.8571C25.5249 37.4467 25.4057 36.9965 25.4057 36.5001V30.4962C25.4057 30.1255 25.4852 29.7879 25.6374 29.49C25.7963 29.1855 26.0081 28.934 26.2861 28.7288L27.802 27.5902C28.0138 27.4247 28.2588 27.2989 28.5235 27.2063C28.7883 27.1136 29.0796 27.0672 29.3841 27.0672H34.7327C34.8386 27.0672 34.9246 27.107 35.0041 27.1798C35.0835 27.2526 35.1232 27.3453 35.1232 27.4578V38.711C35.1232 38.8235 35.0835 38.9162 35.0041 38.989C34.9246 39.0618 34.832 39.1016 34.7327 39.1016H33.5941C33.4816 39.1016 33.3889 39.0618 33.3161 38.989C33.2433 38.9162 33.2036 38.8235 33.2036 38.711V38.433C32.7203 38.5323 32.2834 38.6117 31.8929 38.6911C31.5023 38.7706 31.1515 38.8302 30.8338 38.8831C30.516 38.9361 30.2314 38.989 29.9732 39.0287C29.7151 39.0685 29.4768 39.1016 29.2583 39.1214C29.0399 39.1413 28.8347 39.1611 28.6427 39.1744C28.4507 39.1876 28.2588 39.1942 28.0734 39.1942M28.1065 37.5658H32.7534C32.8792 37.5658 32.9851 37.5195 33.0712 37.4334C33.1572 37.3474 33.1969 37.2415 33.1969 37.1223V28.6096H28.1065C27.9675 28.6096 27.8351 28.6427 27.7093 28.7155C27.5836 28.7883 27.4909 28.881 27.4181 29.0068C27.3453 29.1325 27.3122 29.2649 27.3122 29.4106V36.7649C27.3122 36.9171 27.3453 37.0627 27.4115 37.1819C27.4777 37.301 27.5703 37.4003 27.6895 37.4665C27.8086 37.5327 27.9476 37.5658 28.0999 37.5658" fill="black"/>
<path d="M38.1947 39.0883C38.0888 39.0883 38.0027 39.0486 37.9299 38.9758C37.8571 38.903 37.8174 38.8103 37.8174 38.6978V27.4446C37.8174 27.332 37.8571 27.2394 37.9299 27.1665C38.0027 27.0937 38.0954 27.054 38.1947 27.054H39.3399C39.4458 27.054 39.5318 27.0937 39.6046 27.1665C39.6775 27.2394 39.7172 27.332 39.7172 27.4446V27.7226C40.207 27.6233 40.6439 27.5372 41.0345 27.4644C41.4184 27.3916 41.7692 27.3254 42.087 27.2725C42.4047 27.2195 42.6893 27.1665 42.9475 27.1268C43.2057 27.0871 43.444 27.054 43.6624 27.0342C43.8809 27.0143 44.0861 26.9944 44.278 26.9812C44.47 26.968 44.662 26.968 44.8473 26.968C45.3504 26.968 45.8071 27.0871 46.2109 27.3188C46.6147 27.5505 46.9391 27.8748 47.1774 28.2852C47.4157 28.6957 47.5348 29.1524 47.5348 29.6555V38.7044C47.5348 38.8169 47.4951 38.9096 47.4157 38.9824C47.3362 39.0552 47.2436 39.0949 47.1443 39.0949H45.9991C45.8932 39.0949 45.8071 39.0552 45.7343 38.9824C45.6615 38.9096 45.6218 38.8169 45.6218 38.7044V29.3973C45.6218 29.2451 45.5887 29.1061 45.5159 28.9803C45.4431 28.8611 45.3504 28.7618 45.2312 28.6957C45.1121 28.6295 44.9731 28.5964 44.8208 28.5964H40.1739C40.0548 28.5964 39.9555 28.6361 39.8694 28.7221C39.7834 28.8082 39.7436 28.9141 39.7436 29.0399V38.6978C39.7436 38.8103 39.7039 38.903 39.6245 38.9758C39.5451 39.0486 39.4524 39.0883 39.3531 39.0883H38.1947Z" fill="black"/>
<path d="M50.8115 43.9934C50.7056 43.9934 50.6195 43.9537 50.5467 43.8809C50.4739 43.808 50.4342 43.7154 50.4342 43.6161V42.8482C50.4342 42.7357 50.4739 42.643 50.5467 42.5702C50.6195 42.4974 50.7122 42.4577 50.8115 42.4577H56.9875C57.1331 42.4577 57.2722 42.4246 57.3913 42.3517C57.5105 42.2789 57.6098 42.1863 57.6826 42.0605C57.7554 41.9413 57.7885 41.8023 57.7885 41.6633V38.4197C57.3053 38.519 56.8684 38.5985 56.4778 38.6779C56.0873 38.7573 55.7364 38.8169 55.4187 38.8699C55.101 38.9228 54.8163 38.9758 54.5581 39.0155C54.3 39.0552 54.0617 39.0883 53.8432 39.1082C53.6248 39.128 53.4196 39.1479 53.2276 39.1611C53.0357 39.1744 52.8437 39.181 52.6583 39.181C52.1619 39.181 51.7051 39.0618 51.3013 38.8302C50.8909 38.5985 50.5732 38.2741 50.3349 37.8637C50.1032 37.4533 49.9841 36.9965 49.9841 36.5001V30.4962C49.9841 30.1255 50.0635 29.7879 50.2157 29.49C50.3746 29.1855 50.5864 28.934 50.8644 28.7288L52.3803 27.5902C52.5988 27.4247 52.8371 27.2989 53.1019 27.2063C53.3666 27.1136 53.6579 27.0672 53.9624 27.0672H59.311C59.4169 27.0672 59.5029 27.107 59.5824 27.1798C59.6618 27.2526 59.7015 27.3453 59.7015 27.4578V40.5711C59.7015 40.9352 59.6221 41.2728 59.4632 41.5773C59.3044 41.8884 59.0925 42.1399 58.8211 42.3385L57.292 43.4638C57.0868 43.6227 56.8485 43.7485 56.5771 43.8478C56.3057 43.947 56.0211 44 55.7099 44H50.8049L50.8115 43.9934ZM52.6981 37.5526H57.345C57.4707 37.5526 57.5767 37.5062 57.6627 37.4202C57.7488 37.3341 57.7885 37.2282 57.7885 37.1091V28.5964H52.6981C52.5591 28.5964 52.4267 28.6295 52.3009 28.7023C52.1751 28.7751 52.0824 28.8678 52.0096 28.9935C51.9368 29.1193 51.9037 29.2517 51.9037 29.3973V36.7516C51.9037 36.9039 51.9368 37.0495 52.003 37.1687C52.0692 37.2878 52.1619 37.3871 52.281 37.4533C52.4002 37.5195 52.5392 37.5526 52.6914 37.5526" fill="black"/>
<path d="M64.9376 39.0883C64.4411 39.0883 63.991 38.9692 63.5806 38.7309C63.1768 38.4926 62.8524 38.1682 62.6207 37.7578C62.3824 37.3474 62.2633 36.8972 62.2633 36.4008V30.4829C62.2633 30.1122 62.3427 29.7746 62.495 29.4701C62.6538 29.1656 62.8657 28.9075 63.1437 28.7023L64.6595 27.577C64.878 27.4115 65.1163 27.2857 65.3811 27.193C65.6459 27.1003 65.9371 27.054 66.2416 27.054H69.3396C69.836 27.054 70.2928 27.1732 70.6966 27.4115C71.107 27.6498 71.4313 27.9741 71.6696 28.3779C71.9079 28.7883 72.0271 29.2385 72.0271 29.7349V30.9066C72.0271 31.403 71.9079 31.8532 71.6696 32.257C71.4313 32.6607 71.1136 32.9851 70.7032 33.2234C70.2994 33.4617 69.8493 33.5809 69.3462 33.5809H64.1763V36.745C64.1763 36.9039 64.2094 37.0363 64.2756 37.162C64.3418 37.2878 64.4345 37.3805 64.5536 37.4467C64.6728 37.5129 64.8118 37.546 64.9641 37.546H71.7755C71.8815 37.546 71.9476 37.5923 71.9807 37.6784C72.0138 37.771 71.9874 37.8438 71.9079 37.9034L70.9746 38.6051C70.7892 38.7441 70.5774 38.8632 70.3457 38.9493C70.114 39.0354 69.8559 39.0817 69.5712 39.0817H64.9376V39.0883ZM64.1763 32.0451H69.3131C69.5514 32.0451 69.7433 31.9723 69.889 31.8267C70.0346 31.6811 70.1074 31.4891 70.1074 31.2508V29.3775C70.1074 29.1458 70.0346 28.9604 69.8824 28.8082C69.7367 28.6559 69.5448 28.5831 69.3131 28.5831H64.9641C64.825 28.5831 64.6926 28.6162 64.5669 28.689C64.4411 28.7618 64.3484 28.8545 64.2756 28.9803C64.2028 29.0994 64.1697 29.2385 64.1697 29.3775V32.0385L64.1763 32.0451Z" fill="black"/>
</svg>
